# xmcd
#
# Track frame offsets: 
#        150
#        11471
#        25768
#        35045
#        46304
#        66170
#        83510
#        96485
#        115062
#        133614
#        146695
#        160310
#        177501
#        193208
#        211461
#        224771
#        234550
#        249467
#        267120
#        282513
#        298619
#
# Disc length: 4228 seconds
#
# Revision: 0
# Processed by: cddbd v1.5.1PL2 Copyright (c) Steve Scherf et al.
# Submitted via: ExactAudioCopy v0.95b4
#
DISCID=44108215
DTITLE=Rina Hugo and Ge Korsten - Rina Hugo and Ge Korsten CD 2
DYEAR=1900
DGENRE=Acoustic
TTITLE0=What A Wonderful World
TTITLE1=Ek Is Weer By jou
TTITLE2=I Feel Pretty
TTITLE3=Tiritomba
TTITLE4=Vincent
TTITLE5=Ek sing My Lied Vir Jou
TTITLE6=Tammy
TTITLE7=As Die Kitare Speel
TTITLE8=The Last Thing On My Mind
TTITLE9=Plaisir d'Amor
TTITLE10=The White Cliffs Of Dover
TTITLE11=Wind Beneath My wings
TTITLE12=Hier Is 'n Mens
TTITLE13=Sailing
TTITLE14=Hawekafee
TTITLE15=Hear My Song
TTITLE16=Nicolene
TTITLE17=Love Changes Everything
TTITLE18=1000 Soene
TTITLE19=Some Enchanted Evening
TTITLE20=Ek Will By jou Wees
EXTD=
EXTT0=
EXTT1=
EXTT2=
EXTT3=
EXTT4=
EXTT5=
EXTT6=
EXTT7=
EXTT8=
EXTT9=
EXTT10=
EXTT11=
EXTT12=
EXTT13=
EXTT14=
EXTT15=
EXTT16=
EXTT17=
EXTT18=
EXTT19=
EXTT20=
PLAYORDER=
